<svg xmlns="http://www.w3.org/2000/svg" width="192" height="192" viewBox="0 0 192 192">
  <g>
    <path d="M93.1,135.14c-1.92-1.37-7-1.24-9-1.2H79l-3.3,15.59,6.58,0c3.6-.19,7.69-.42,9.93-2.35a8.34,8.34,0,0,0,2.87-6.69C95.15,138,94.46,136.12,93.1,135.14Z"/>
    <path d="M192,0H0V192H192V60L166.15,45,192,30ZM54.26,144.45H48.49a1,1,0,0,1-1-1.25,7.62,7.62,0,0,0,.26-2.66c-.19-4.46-4.06-7.33-9.88-7.33-3.11,0-8.34,1-8.34,7.4,0,3.53,2.54,4.68,9.88,7.47l.94.35c5.82,2.24,12,5.33,12,13.71,0,9.62-6.59,15.6-17.21,15.6-4.45,0-9.87-.54-13.72-4.39l-.55,2.85a1,1,0,0,1-1,.81H14a1,1,0,0,1-.78-.37,1,1,0,0,1-.2-.84L16.34,160a1,1,0,0,1,1-.8h5.77a1,1,0,0,1,.77.37,1,1,0,0,1,.21.82,16.65,16.65,0,0,0-.28,3c0,3.26,1,7.61,10,7.61,3.64,0,9.73-1.11,9.73-8.56,0-3.85-5.09-5.8-10.48-7.88l-.26-.1c-5.86-2.22-12.1-5.3-12.1-13.7,0-10.55,9.15-14.29,17-14.29,5.13,0,9.61,1.65,12.41,4.5l.71-3a1,1,0,0,1,1-.77h5.91a1,1,0,0,1,1,1.22l-3.36,15.18A1,1,0,0,1,54.26,144.45Zm44.8,18.93a32.28,32.28,0,0,1-.84,7h3.41a1,1,0,0,1,.78.37,1,1,0,0,1,.2.84l-1,4.68a1,1,0,0,1-1,.78H90a1,1,0,0,1-.77-.37,1,1,0,0,1-.2-.84,57.44,57.44,0,0,0,1.65-12.05c0-5.78-1.78-7-5.53-7.4-3-.16-5.24-.21-7.23-.14H74.19l-3.07,14.13h5.33a1,1,0,0,1,.77.37,1,1,0,0,1,.21.83l-1,4.67a1,1,0,0,1-1,.8H56.37a1,1,0,0,1-.77-.37,1,1,0,0,1-.21-.83l1-4.67a1,1,0,0,1,1-.8H62.5l7.89-36.4H65.13a1,1,0,0,1-.77-.37,1,1,0,0,1-.2-.84l1-4.67a1,1,0,0,1,1-.79h19c5.13,0,10.44,0,13.78,2.58,3.34,2,5,5.26,5,9.66,0,7.06-3.84,11.88-10.7,13.68C97.44,154.92,99.06,158,99.06,163.38Zm47.21,12.83a1,1,0,0,1-1,.8H106.52a1,1,0,0,1-.77-.37,1,1,0,0,1-.2-.83l.94-4.67a1,1,0,0,1,1-.8H113l7.61-36.4H115.5a1,1,0,0,1-.77-.36,1,1,0,0,1-.21-.84l1-4.67a1,1,0,0,1,1-.8H136.6a1,1,0,0,1,1,1.2l-1,4.67a1,1,0,0,1-1,.8h-6.34l-7.61,36.4h17.59l2.24-10.81a1,1,0,0,1,1-.8h6.13a1,1,0,0,1,1,1.21Z"/>
  </g>
</svg>
